<svg width="40" height="40" viewBox="0 0 40 40" fill="none" xmlns="http://www.w3.org/2000/svg">
<g clip-path="url(#clip0_9_657)">
<path d="M12.5033 0H16.8V1.79667H14.3V3.59333H16.8V5.39H12.5033V0Z" fill="#10183A"/>
<path d="M17.6583 0H21.9567V1.56333H19.4567V1.875H21.9567V5.46833H17.6583V3.82833H20.1583V3.515H17.6583V0Z" fill="#10183A"/>
<path d="M22.8167 0H27.1117V1.56333H24.6117V1.875H27.1117V5.46833H22.8167V3.82833H25.3167V3.515H22.8167V0Z" fill="#10183A"/>
<path fill-rule="evenodd" clip-rule="evenodd" d="M19.985 40.0002L8.41165 36.7868L4.99999 7.86182H35L31.59 36.7835L19.985 40.0002ZM11.745 20.9552L12.0633 24.5018H24.3583L23.9467 29.1018L19.99 30.1718H19.9867L16.0367 29.1052L15.7833 26.2768H12.2217L12.7183 31.8468L19.985 33.8635L27.2633 31.8468L28.15 21.9068L28.2367 20.9552L28.8767 13.7735H11.1067L11.43 17.3218H24.99L24.6667 20.9552H11.745Z" fill="#10183A"/>
</g>
<defs>
<clipPath id="clip0_9_657">
<rect width="40" height="40" fill="white"/>
</clipPath>
</defs>
</svg>
