<svg width="28" height="40" viewBox="0 0 28 40" fill="none" xmlns="http://www.w3.org/2000/svg">
<path fill-rule="evenodd" clip-rule="evenodd" d="M8.19279 0C4.11446 0 0.834456 3.42167 0.834456 7.61333C0.834456 10.1617 2.04779 12.425 3.91279 13.8067C2.95159 14.5268 2.17247 15.4621 1.6379 16.5376C1.10332 17.6132 0.828155 18.799 0.834456 20C0.834456 22.55 2.04779 24.8117 3.91279 26.1933C2.95159 26.9135 2.17247 27.8488 1.6379 28.9243C1.10332 29.9998 0.828155 31.1856 0.834456 32.3867C0.834456 36.5783 4.11446 40 8.19279 40C12.2695 40 15.5511 36.5783 15.5511 32.3867V25.95C16.84 27.0246 18.4647 27.6138 20.1428 27.615C24.2211 27.6133 27.5011 24.1917 27.5011 20C27.5011 17.45 26.2895 15.1883 24.4228 13.8067C25.384 13.0865 26.1631 12.1512 26.6977 11.0757C27.2323 10.0002 27.5074 8.81436 27.5011 7.61333C27.5011 3.42167 24.2211 0 20.1428 0H8.19279ZM3.59946 7.61333C3.59946 4.96167 5.66946 2.83833 8.19279 2.83833H12.7845V12.3883H8.19279C5.66946 12.3883 3.59946 10.2633 3.59946 7.61333ZM20.1428 12.3867H15.5511V2.83667H20.1428C22.6678 2.83667 24.7361 4.96167 24.7361 7.61333C24.7361 10.2633 22.6678 12.3867 20.1428 12.3867ZM3.60112 20C3.60112 17.35 5.67112 15.225 8.19446 15.225H12.7861V24.775H8.19279C5.66779 24.775 3.60112 22.65 3.60112 20ZM15.5511 20C15.5511 17.35 17.6211 15.225 20.1445 15.225C22.6695 15.225 24.7378 17.3483 24.7378 20C24.7378 22.65 22.6695 24.775 20.1445 24.775C17.6211 24.775 15.5528 22.6517 15.5528 20H15.5511ZM3.60112 32.3867C3.60112 29.7367 5.67112 27.6133 8.19446 27.6133H12.7861V32.3867C12.7861 35.0383 10.7195 37.1617 8.19446 37.1617C5.67112 37.1617 3.60112 35.0383 3.60112 32.3867Z" fill="#10183A"/>
</svg>
