<svg width="30" height="40" viewBox="0 0 30 40" fill="none" xmlns="http://www.w3.org/2000/svg">
<path d="M3.46666 0H5.27V1.78167H6.92V0H8.72333V5.39333H6.92V3.58833H5.27V5.39333H3.46833L3.46666 0Z" fill="#10183A"/>
<path d="M11.0933 1.78833H9.50666V0H14.485V1.78833H12.8967V5.39333H11.0933V1.78833Z" fill="#10183A"/>
<path d="M15.275 0H17.155L18.3117 1.895L19.4667 0H21.3467V5.39333H19.5517V2.72L18.3117 4.63833H18.28L17.0383 2.72167V5.39333H15.275V0Z" fill="#10183A"/>
<path d="M22.2433 0H24.0483V3.61167H26.5817V5.395H22.2433V0Z" fill="#10183A"/>
<path fill-rule="evenodd" clip-rule="evenodd" d="M3.41 36.7868L0 7.86182H30L26.5883 36.7835L14.9833 40.0002L3.41 36.7868ZM10.305 20.9535L9.98167 17.3202H23.5567L23.8733 13.7735H6.10667L7.06333 24.5018H19.3583L18.9467 29.1018L14.99 30.1718H14.9867L11.0367 29.1051L10.7833 26.2768H7.22L7.71667 31.8468L14.9833 33.8635L22.2617 31.8468L23.1483 21.9068L23.235 20.9552H10.305V20.9535Z" fill="#10183A"/>
</svg>
