<svg width="40" height="40" viewBox="0 0 40 40" fill="none" xmlns="http://www.w3.org/2000/svg">
<path fill-rule="evenodd" clip-rule="evenodd" d="M8.13145 0.0353079C8.06864 0.059224 6.31409 1.05874 4.23244 2.25644C1.7049 3.71065 0.414186 4.47101 0.347005 4.54527C0.291669 4.60645 0.229252 4.71363 0.208338 4.78345C0.156264 4.9572 0.153458 30.7147 0.205499 30.902C0.224652 30.971 0.286971 31.0764 0.343971 31.1362C0.478723 31.2776 15.5383 39.9464 15.7201 39.9872C15.8068 40.0067 15.9002 40.0039 15.9963 39.9789C16.2009 39.9257 31.2181 31.2789 31.3518 31.1372C31.4088 31.0769 31.4711 30.971 31.4903 30.902C31.5142 30.8162 31.5253 29.4685 31.5256 26.6329L31.5261 22.4892L35.1851 20.3847C38.6394 18.3979 38.8493 18.2721 38.937 18.1351L39.0299 17.9901V13.5254C39.0299 8.66742 39.0405 8.94215 38.8463 8.76553C38.7947 8.71865 37.0347 7.69087 34.9351 6.48159L31.1177 4.28291H30.9056H30.6935L26.9576 6.43317C24.9029 7.6158 23.1532 8.62784 23.0695 8.68217C22.9858 8.73649 22.883 8.8407 22.8411 8.91373L22.765 9.04655L22.7487 13.2525L22.7323 17.4584L19.649 19.2356C17.9532 20.213 16.54 21.02 16.5086 21.0288C16.4543 21.0441 16.4515 20.6419 16.4515 12.9114V4.77807L16.369 4.63722C16.2702 4.46863 16.724 4.74074 12.1413 2.10253C8.29802 -0.109983 8.38927 -0.0629341 8.13145 0.0353079ZM5.18729 3.13686C3.46928 4.1261 2.06361 4.94281 2.06355 4.95178C2.06348 4.96075 3.47179 5.77869 5.1931 6.7694L8.32278 8.57071L11.456 6.7694C13.1794 5.77869 14.5894 4.96075 14.5894 4.95178C14.5895 4.93703 9.04085 1.73808 8.52683 1.45654L8.3109 1.33829L5.18729 3.13686ZM27.7662 7.39311C26.0665 8.37429 24.6747 9.19175 24.6733 9.20969C24.67 9.25257 30.8044 12.7914 30.8893 12.7955C30.9725 12.7996 37.1833 9.22513 37.1477 9.19361C37.0864 9.13935 30.9604 5.62848 30.9109 5.61924C30.881 5.6137 29.4659 6.41193 27.7662 7.39311ZM1.41827 18.1992L1.42646 30.3741L8.30757 34.3357C12.0922 36.5146 15.2012 38.2973 15.2165 38.2973C15.2318 38.2973 15.2443 36.6769 15.2443 34.6964V31.0956L11.6797 29.0807C9.71918 27.9726 8.06003 27.0288 7.99265 26.9835C7.92528 26.9382 7.83718 26.8481 7.79689 26.7833L7.7236 26.6655L7.70729 18.1504L7.69098 9.63526L4.70554 7.91506C3.06355 6.96892 1.65035 6.15646 1.5651 6.1096L1.41005 6.02438L1.41827 18.1992ZM12.0724 7.83639L8.94949 9.63385L8.94832 17.5053C8.94767 21.8346 8.95432 25.3767 8.96307 25.3767C8.98388 25.3767 14.9623 21.9375 15.1219 21.8337L15.2443 21.7541V13.9095C15.2443 9.59503 15.2333 6.05913 15.2198 6.05195C15.2063 6.04481 13.79 6.84781 12.0724 7.83639ZM23.9885 13.8723V17.4419L27.08 19.2214C28.7803 20.2001 30.1972 21.0107 30.2286 21.0225C30.2827 21.0431 30.2857 20.8607 30.2857 17.4741V13.904L27.1582 12.1034C25.4381 11.113 24.0212 10.3027 24.0096 10.3027C23.998 10.3027 23.9885 11.909 23.9885 13.8723ZM34.649 12.1007L31.5255 13.8987V17.468C31.5255 19.4311 31.535 21.0372 31.5465 21.0372C31.5835 21.0372 37.7727 17.4692 37.7977 17.4335C37.8298 17.3877 37.8296 10.3027 37.7976 10.3027C37.7838 10.3027 36.3669 11.1118 34.649 12.1007ZM16.4875 22.4824C12.7119 24.6575 9.62371 26.4502 9.62495 26.4661C9.62665 26.4879 14.8099 29.4436 15.7038 29.9325L15.8533 30.0143L22.7187 26.0948C26.4947 23.939 29.596 22.1635 29.6105 22.1492C29.6326 22.1275 23.5489 18.5959 23.4012 18.5447C23.3732 18.535 20.413 20.221 16.4875 22.4824ZM23.3441 27.1614L16.4515 31.0968V34.697C16.4515 36.9042 16.4633 38.2973 16.482 38.2973C16.4987 38.2973 19.6077 36.5151 23.3909 34.337L30.2693 30.3766L30.2776 26.8C30.2822 24.8328 30.2749 23.2239 30.2613 23.2246C30.2478 23.2254 27.1351 24.9969 23.3441 27.1614Z" fill="#10183A"/>
</svg>
