<svg width="78" height="40" viewBox="0 0 78 40" fill="none" xmlns="http://www.w3.org/2000/svg">
<path fill-rule="evenodd" clip-rule="evenodd" d="M49.2284 0.0611865C48.5311 0.271091 48.1112 0.872891 48.1124 1.66016C48.1133 2.31174 48.2878 2.65908 49.2784 3.98144C49.7247 4.57726 50.1529 5.17294 50.2301 5.30516C50.3072 5.4373 50.578 6.17518 50.832 6.94483C51.3826 8.61363 52.0399 9.99521 52.5735 10.605C52.9799 11.0695 52.9961 11.1095 52.8709 11.3433C52.7567 11.5567 52.3058 13.3761 52.2046 14.0318C51.9637 15.592 52.2053 17.3662 52.8442 18.7301C53.2464 19.5888 53.9535 20.3628 54.4148 20.4493C54.8432 20.5297 55.1964 20.4294 55.4786 20.1472C55.756 19.8699 55.8106 19.6898 56.0191 18.3666C56.1402 17.5981 56.1725 17.474 56.2344 17.5409C56.2504 17.5583 56.4532 17.9517 56.6849 18.4154C57.2624 19.5708 57.9316 20.3583 59.3443 21.5445C59.6771 21.8239 60.0175 22.1302 60.1007 22.2252C60.2767 22.4258 60.8133 22.8295 60.9043 22.8295C60.9385 22.8295 60.6653 22.5283 60.2971 22.16C59.0309 20.8938 57.0096 17.4878 56.3659 15.5358C56.2983 15.3309 56.2062 15.1512 56.1613 15.1366C56.0611 15.104 55.4544 15.8659 55.2318 16.3038C55.0292 16.7023 54.8754 17.3596 54.7669 18.291C54.6546 19.2551 54.6313 19.35 54.5077 19.35C54.2863 19.35 53.9016 18.9186 53.6635 18.4033C53.249 17.5062 53.0948 16.7935 53.0499 15.5679C53.0004 14.2114 53.0836 13.6426 53.5233 12.3319C54 10.9109 53.9889 10.7988 53.2944 10.029C52.7646 9.44174 52.3607 8.60198 51.8291 6.98265C51.1807 5.00691 51.1235 4.89586 49.9587 3.35112C49.0133 2.09745 48.8363 1.5992 49.205 1.23052C49.431 1.00443 49.6826 0.9949 50.252 1.19081C51.2413 1.5312 52.2638 2.09351 53.0661 2.73843C53.2669 2.89985 53.419 2.93116 54.3898 3.01089C55.9296 3.13744 56.7929 3.45036 58.4785 4.49308C61.2094 6.18237 63.8834 9.28055 64.8992 11.9323C65.0336 12.2832 65.484 13.3044 65.9 14.2015C67.5135 17.6808 67.7079 18.0235 68.2138 18.2817C68.3713 18.362 68.976 18.5882 69.5575 18.7843C70.8611 19.2238 71.2251 19.4059 72.2789 20.1456C72.7366 20.467 73.2982 20.8483 73.527 20.9934C73.9421 21.2563 74.4347 21.6801 74.4347 21.7742C74.4347 21.8016 73.9496 21.8445 73.3568 21.8696C72.764 21.8947 72.0577 21.9684 71.7873 22.0334C71.0545 22.2096 70.1805 22.5319 70.0144 22.6872C69.8699 22.8224 69.8711 22.8309 70.1106 23.3075C70.6459 24.3725 71.7256 25.2652 73.5916 26.1851C74.7042 26.7336 75.5982 27.3079 76.3014 27.9256C76.4848 28.0867 76.6509 28.2026 76.6704 28.1831C76.7515 28.102 76.4464 27.5564 76.1512 27.2546C75.9768 27.0763 75.6683 26.737 75.4656 26.5006C74.9186 25.8627 74.0505 25.1524 73.0857 24.5537C72.1985 24.003 71.6355 23.5361 71.6366 23.3518C71.6373 23.2297 73.008 22.8901 74.0565 22.7522C74.8377 22.6494 75.797 22.3829 75.7942 22.2694C75.7904 22.111 74.9235 21.1107 74.4347 20.7006C72.5295 19.102 70.9957 18.1511 69.2666 17.4966C69.0552 17.4166 68.828 17.2602 68.7265 17.1251C68.4824 16.8 66.6727 13.0156 66.1911 11.8237C65.7019 10.6127 65.5315 10.2726 65.0001 9.44749C63.9217 7.77272 62.3993 6.06096 60.9514 4.89511C60.0403 4.16146 58.3285 3.0208 57.6111 2.66929C56.8916 2.31665 55.5173 1.97763 54.5869 1.92324C53.9317 1.88497 53.8094 1.85539 53.6036 1.68611C52.1886 0.521614 50.1784 -0.224888 49.2284 0.0611865ZM53.946 4.89223C53.769 4.94185 53.7709 4.9473 54.1065 5.35939C54.2934 5.58874 54.5568 5.99538 54.6919 6.26308L54.9375 6.74975L55.1142 6.54439C55.5098 6.08441 55.3897 5.39434 54.8486 5.01939C54.5747 4.8296 54.3048 4.79155 53.946 4.89223ZM1.75941 24.5284C0.985452 24.7044 0.498551 24.9645 0.255213 25.3323L0.0416783 25.6549L0.0208013 31.0498L0 36.4449H1.28726H2.5746L2.59404 31.5093L2.61348 26.5737L4.27017 30.2801C6.88606 36.1325 6.82169 36.0117 7.53015 36.3948C7.7961 36.5385 7.95177 36.5583 8.81605 36.5583C9.68032 36.5583 9.83599 36.5385 10.1019 36.3948C10.8078 36.0132 10.6917 36.2352 13.6621 29.5909L15.0186 26.5568L15.0381 31.5008L15.0575 36.4449H16.3448H17.6321L17.6113 31.0498L17.5904 25.6549L17.3769 25.3323C17.1194 24.9432 16.645 24.7041 15.7725 24.5237C14.6335 24.2881 13.7575 24.511 13.1098 25.201C12.7772 25.5553 12.565 25.9934 10.7497 30.0734L8.75508 34.5563L8.62755 34.2715C8.55743 34.1147 7.68877 32.1022 6.69719 29.7991C5.05563 25.9864 4.86176 25.5761 4.53075 25.2139C4.30148 24.963 4.02169 24.7535 3.77351 24.6467C3.27307 24.4315 2.40932 24.3807 1.75941 24.5284ZM37.1058 24.7214C36.2129 24.7861 35.4128 25.0389 34.8294 25.4407C34.0482 25.9787 33.8154 26.5953 33.8154 28.1268C33.8154 28.7893 33.8512 29.1857 33.9325 29.4242C34.0936 29.8972 34.6403 30.4236 35.2904 30.7318C36.2647 31.1936 36.5683 31.2381 39.1481 31.2976C41.7298 31.357 41.9463 31.3943 42.3254 31.8449C42.5047 32.058 42.5142 32.1169 42.5142 33.0162C42.5142 34.1192 42.4487 34.2722 41.8518 34.5662L41.493 34.7429L37.6542 34.7657L33.8154 34.7885V35.6167V36.4449H37.8284C42.3329 36.4449 42.4506 36.4339 43.5353 35.9145C44.1705 35.6105 44.523 35.3184 44.851 34.8243C45.0431 34.5352 45.0487 34.4913 45.0728 33.1119C45.0954 31.816 45.0847 31.6709 44.946 31.399C44.6474 30.8138 43.9784 30.3532 42.9302 30.0111C42.4367 29.85 42.2309 29.8353 39.9045 29.7934C37.4394 29.749 37.4038 29.746 37.0353 29.5604C36.456 29.2685 36.3755 29.0535 36.4027 27.8718C36.4245 26.9232 36.4298 26.8965 36.629 26.7254C36.9927 26.4129 37.3903 26.3846 41.4236 26.3846H45.2422L45.2208 25.5336L45.1994 24.6827L41.5308 24.6747C39.5131 24.6702 37.5219 24.6912 37.1058 24.7214ZM60.9873 29.4273L61.0084 34.2135L61.1868 34.6078C61.5316 35.3705 62.2725 35.8885 63.5114 36.2331C64.0872 36.3933 64.2627 36.4006 68.1754 36.4269L72.2411 36.4543V35.6176V34.7808L68.7427 34.7802C64.5206 34.7795 64.0605 34.7261 63.7133 34.1964C63.591 34.0098 63.5771 33.6155 63.5424 29.338L63.5046 24.6827L62.2354 24.6619L60.9663 24.6411L60.9873 29.4273ZM49.4732 24.8263C48.0417 25.1519 47.235 25.6993 46.9113 26.5647C46.7551 26.9819 46.7501 27.1073 46.7501 30.5827C46.7501 34.0647 46.7548 34.1827 46.9122 34.6032C47.2144 35.4111 48.0296 36.0086 49.284 36.342C49.7433 36.464 50.1097 36.4827 52.0449 36.4827C53.2722 36.4827 54.5217 36.457 54.8215 36.4257L55.3667 36.3688L56.3721 37.2758L57.3776 38.1828L58.8337 38.1837C59.6346 38.1842 60.2898 38.1746 60.2898 38.1622C60.2898 38.1498 59.7453 37.6505 59.0797 37.0525L57.8695 35.9651L58.1909 35.7838C58.6589 35.5197 58.9703 35.1912 59.1691 34.7519L59.3443 34.3647V30.6205V26.8763L59.1348 26.4495C58.7702 25.7072 58.1676 25.2582 57.1017 24.9347C56.5669 24.7724 56.418 24.7653 53.2174 24.7488C50.7714 24.7362 49.7789 24.7567 49.4732 24.8263ZM50.7081 26.4636C50.1644 26.5711 49.7781 26.8415 49.5582 27.2684C49.4489 27.4807 49.4391 33.4151 49.5475 33.793C49.6513 34.1549 50.0404 34.5291 50.4566 34.6674C50.7336 34.7594 51.1036 34.7799 52.1924 34.7636L53.5761 34.7429L52.5713 33.8352L51.5664 32.9276L53.0243 32.907L54.4821 32.8864L55.2113 33.5455C55.6123 33.9081 56.0338 34.2894 56.1479 34.3929L56.3555 34.5811L56.5523 34.3973C56.9668 34.01 56.9616 34.0589 56.9616 30.5827C56.9616 27.062 56.9646 27.0881 56.5182 26.7702C56.054 26.4397 55.5676 26.384 53.2204 26.3929C52.0123 26.3975 50.8817 26.4292 50.7081 26.4636ZM29.277 31.5329V34.8657L26.2324 34.8422C22.9036 34.8164 22.8308 34.8071 22.482 34.3637C22.3201 34.158 22.318 34.1166 22.318 31.2154V28.2756H21.0321H19.7462L19.7469 31.3202L19.7476 34.3647L19.9694 34.7514C20.3362 35.3909 20.9563 35.8196 21.9728 36.1362C22.5793 36.3253 22.6017 36.3265 25.9374 36.3521L29.2922 36.3779L29.2656 37.0227C29.2404 37.638 29.2281 37.6774 28.9973 37.8836C28.5476 38.2854 28.5069 38.2889 23.9632 38.317L19.7462 38.343V39.1715V40H24.1752C29.0833 40 29.1771 39.9924 30.2374 39.5065C30.9567 39.177 31.4949 38.6708 31.6951 38.1358C31.8436 37.7389 31.8488 37.5647 31.8488 32.9625V28.2H30.5629H29.277V31.5329ZM74.7101 32.9375C74.2415 33.0814 73.6738 33.6331 73.5438 34.0709C73.3135 34.8466 73.4695 35.5068 74.007 36.0304C74.6129 36.6206 75.3358 36.7563 76.0652 36.4166C77.2607 35.8599 77.5427 34.3319 76.6208 33.406C76.3692 33.1533 76.1542 33.0184 75.8674 32.9332C75.3831 32.7894 75.19 32.7901 74.7101 32.9375ZM74.9913 33.2647C74.3169 33.4249 73.8723 33.9966 73.871 34.7051C73.8701 35.2385 74.081 35.6539 74.5047 35.9532C74.7787 36.1468 74.8954 36.1801 75.2977 36.1801C75.6858 36.1801 75.8253 36.1432 76.0839 35.972C76.59 35.6372 76.8688 34.9267 76.714 34.3663C76.4961 33.5769 75.7324 33.0885 74.9913 33.2647ZM74.586 34.7051C74.586 35.7136 74.5932 35.7641 74.7373 35.7641C74.8718 35.7641 74.8886 35.7136 74.8886 35.3102C74.8886 34.8823 74.8989 34.8564 75.0692 34.8564C75.2088 34.8564 75.3083 34.9552 75.5073 35.2913C75.7064 35.6276 75.8113 35.7317 75.9696 35.7502C76.0823 35.7633 76.1745 35.7535 76.1745 35.7283C76.1745 35.7031 76.0568 35.5079 75.9131 35.2944C75.6563 34.9131 75.6341 34.7808 75.8268 34.7808C76.0025 34.7808 76.1745 34.5092 76.1745 34.2319C76.1745 33.7974 75.918 33.6461 75.1809 33.6461H74.586V34.7051ZM74.8886 34.2513V34.5618L75.2779 34.5389C75.5488 34.523 75.6925 34.4758 75.7503 34.3836C75.8974 34.1492 75.7178 33.9895 75.2779 33.9637L74.8886 33.9408V34.2513Z" fill="#10183A"/>
</svg>
