<svg width="42" height="40" viewBox="0 0 42 40" fill="none" xmlns="http://www.w3.org/2000/svg">
<path fill-rule="evenodd" clip-rule="evenodd" d="M0.0300293 20V40H20.5563H41.0827V20V0H20.5563H0.0300293V20ZM2.00047 2.0393C1.97749 2.09965 1.96889 10.2215 1.98126 20.0877L2.00371 38.0263H20.5563H39.109V20V1.97368L20.5756 1.95158C5.79494 1.93386 2.0338 1.95167 2.00047 2.0393ZM10.2932 9.55956C10.1778 9.63246 10.1588 10.7937 10.1385 18.9901L10.1154 28.3375L11.6298 28.3135L13.1441 28.2895L13.167 24.9465L13.1899 21.6034L14.6144 21.551C16.1035 21.4961 16.7928 21.3813 17.7742 21.0251C19.5656 20.3749 20.7772 19.0564 21.2718 17.2193C21.5148 16.3166 21.5359 14.5425 21.3144 13.6428C20.7885 11.5067 19.2928 10.1112 17.028 9.64395C16.3223 9.49833 15.8297 9.47605 13.3195 9.47614C11.6467 9.47632 10.3692 9.51149 10.2932 9.55956ZM13.3853 12.081L13.1002 12.1164V15.5009V18.8854L14.3502 18.8328C15.7164 18.7753 16.265 18.6592 16.9606 18.2806C17.8612 17.7904 18.3449 16.9254 18.4272 15.6579C18.5814 13.2825 17.1244 11.9798 14.3721 12.0323C13.9862 12.0396 13.542 12.0616 13.3853 12.081ZM27.2633 14.2968C24.4283 14.5485 22.7383 16.6442 23.2865 19.2282C23.565 20.5407 24.4042 21.4149 26.3897 22.461C28.1418 23.3841 28.7142 23.9212 28.7142 24.6419C28.7142 25.1489 28.5133 25.4894 28.0764 25.7228C27.7485 25.8981 27.5833 25.9205 26.6528 25.9163C25.7378 25.9121 25.5085 25.8797 24.8985 25.6686C24.5125 25.535 23.9945 25.3102 23.7474 25.1689C23.5003 25.0278 23.2734 24.9123 23.243 24.9123C23.2127 24.9123 23.1879 25.5588 23.1879 26.3489V27.7854L23.6126 27.9681C24.6467 28.413 25.3586 28.546 26.6967 28.5443C28.5738 28.5419 29.5713 28.2225 30.5602 27.3068C31.5045 26.4327 31.9454 25.0381 31.7125 23.6623C31.4505 22.1146 30.7034 21.3194 28.2756 20.0038C27.0743 19.3527 26.3969 18.8619 26.2156 18.5112C25.9006 17.9022 26.1701 17.2119 26.8385 16.9162C27.6964 16.5368 29.4521 16.7637 30.7112 17.4169C30.8362 17.4818 30.9709 17.5148 31.0106 17.4904C31.0502 17.4658 31.0827 16.854 31.0827 16.1307V14.8156L30.7755 14.6873C29.9993 14.363 28.4536 14.1911 27.2633 14.2968Z" fill="#10183A"/>
</svg>
