<svg width="41" height="22" viewBox="0 0 41 22" fill="none" xmlns="http://www.w3.org/2000/svg">
<path d="M20.1678 0.166504C8.95285 0.166504 0.167847 4.92484 0.167847 10.9998C0.167847 17.0748 8.95285 21.8332 20.1678 21.8332C31.3828 21.8332 40.1678 17.0748 40.1678 10.9998C40.1678 4.92484 31.3828 0.166504 20.1678 0.166504ZM18.0912 3.49984H20.2745L19.5812 6.83317H21.5312C22.7678 6.83317 23.5978 7.0065 24.0712 7.43817C24.5328 7.86484 24.6728 8.56484 24.4878 9.51817L23.6212 13.4998H21.4012L22.1995 9.81817C22.2962 9.31317 22.2578 8.9615 22.0878 8.7765C21.9195 8.59151 21.5478 8.49984 20.9912 8.49984H19.2428L18.1878 13.4998H16.0012L18.0912 3.49984ZM8.50118 6.83317H12.9445C15.0628 6.83317 16.3462 8.25317 15.8445 10.3715C15.2612 12.8332 13.7012 13.4998 10.8278 13.4998H9.45451L9.01951 15.9998H6.81118L8.50118 6.83317ZM26.0012 6.83317H30.4445C32.5628 6.83317 33.8462 8.25317 33.3445 10.3715C32.7612 12.8332 31.1995 13.4998 28.3278 13.4998H26.9545L26.5195 15.9998H24.3112L26.0012 6.83317ZM10.3928 8.49984L9.76451 11.8332H11.1895C12.4228 11.8332 13.5695 11.6932 13.7612 9.85317C13.8328 9.14151 13.5362 8.49984 12.1112 8.49984H10.3928ZM27.8928 8.49984L27.2645 11.8332H28.6895C29.9228 11.8332 31.0695 11.6932 31.2612 9.85317C31.3328 9.14151 31.0378 8.49984 29.6112 8.49984H27.8928Z" fill="#10183A"/>
</svg>
