<svg width="40" height="40" viewBox="0 0 40 40" fill="none" xmlns="http://www.w3.org/2000/svg">
<mask id="mask0_9_671" style="mask-type:luminance" maskUnits="userSpaceOnUse" x="0" y="0" width="40" height="40">
<path d="M40 0H0V40H40V0Z" fill="white"/>
</mask>
<g mask="url(#mask0_9_671)">
<path d="M40 19.482C40 16.832 36.6816 14.3203 31.5933 12.7637C32.7683 7.57866 32.2466 3.45199 29.9466 2.13033C29.3893 1.81819 28.7586 1.66108 28.12 1.67533V3.49199C28.495 3.49199 28.7966 3.56699 29.05 3.70533C30.1583 4.34199 30.64 6.76199 30.265 9.87699C30.175 10.6437 30.0283 11.4503 29.8483 12.2737C28.1444 11.8631 26.415 11.5663 24.6716 11.3853C23.6331 9.95247 22.5 8.59056 21.28 7.30866C23.9383 4.83866 26.4333 3.48533 28.13 3.48533V1.66699C25.8866 1.66699 22.9516 3.26533 19.9833 6.03699C17.0166 3.28366 14.08 1.70033 11.8383 1.70033V3.51699C13.5266 3.51699 16.03 4.86366 18.6883 7.31699C17.5466 8.51699 16.405 9.87699 15.32 11.3853C13.573 11.5643 11.8406 11.8639 10.135 12.282C9.94664 11.467 9.8083 10.677 9.70997 9.91866C9.32664 6.80199 9.79997 4.38199 10.9016 3.73866C11.145 3.59199 11.4633 3.52533 11.8383 3.52533V1.70866C11.155 1.70866 10.5333 1.85533 9.99664 2.16366C7.70497 3.48533 7.19164 7.60199 8.3733 12.772C3.30164 14.3387 -3.05176e-05 16.8403 -3.05176e-05 19.482C-3.05176e-05 22.132 3.3183 24.6437 8.40664 26.1987C7.23164 31.3853 7.7533 35.512 10.0533 36.832C10.5833 37.142 11.2033 37.2887 11.8866 37.2887C14.13 37.2887 17.065 35.6903 20.0333 32.9187C23 35.6737 25.935 37.2553 28.1783 37.2553C28.8218 37.2689 29.4574 37.1113 30.02 36.7987C32.3116 35.4787 32.825 31.362 31.6433 26.192C36.6983 24.6353 40 22.1237 40 19.482ZM29.3833 14.0437C29.0666 15.1334 28.6995 16.2079 28.2833 17.2637C27.6019 15.9383 26.8537 14.6483 26.0416 13.3987C27.2 13.5703 28.3166 13.782 29.385 14.0437H29.3833ZM25.65 22.727C25.015 23.827 24.3616 24.872 23.685 25.842C21.2387 26.0576 18.7784 26.0604 16.3316 25.8503C14.9282 23.8456 13.7009 21.7233 12.6633 19.507C13.6993 17.2855 14.9214 15.1557 16.3166 13.1403C18.7623 12.9243 21.2221 12.9209 23.6683 13.1303C24.345 14.1003 25.0066 15.137 25.6416 16.2303C26.2616 17.297 26.825 18.3803 27.3383 19.4737C26.8193 20.5803 26.256 21.6656 25.65 22.727ZM28.2833 21.667C28.7233 22.7587 29.1 23.852 29.4083 24.912C28.3416 25.1737 27.215 25.3937 26.05 25.5637C26.8587 24.3027 27.6041 23.0022 28.2833 21.667ZM20.0166 30.367C19.2583 29.5837 18.5 28.712 17.75 27.757C18.4833 27.7903 19.2333 27.8153 19.9916 27.8153C20.7583 27.8153 21.5166 27.7987 22.2583 27.757C21.525 28.712 20.7666 29.5837 20.0166 30.367ZM13.95 25.5637C12.8262 25.4008 11.7106 25.1862 10.6066 24.9203C10.9083 23.8687 11.2833 22.7837 11.7066 21.7003C12.0416 22.3503 12.3933 23.0037 12.7766 23.657C13.16 24.3087 13.55 24.9453 13.95 25.5637ZM19.975 8.59699C20.7333 9.38033 21.4916 10.252 22.2416 11.207C21.5083 11.1737 20.7583 11.1487 20 11.1487C19.2333 11.1487 18.475 11.1653 17.7333 11.207C18.4666 10.252 19.225 9.38033 19.975 8.59699ZM13.9416 13.4003C13.1331 14.6585 12.3877 15.9563 11.7083 17.2887C11.2803 16.2261 10.9049 15.1431 10.5833 14.0437C11.65 13.7903 12.7766 13.5703 13.9416 13.4003ZM6.5633 23.607C3.67664 22.377 1.80997 20.762 1.80997 19.482C1.80997 18.202 3.67664 16.5787 6.5633 15.357C7.2633 15.0553 8.02997 14.7853 8.82164 14.5337C9.28664 16.1303 9.8983 17.7937 10.655 19.4987C9.94058 21.1023 9.3364 22.7528 8.84664 24.4387C8.07239 24.1989 7.31036 23.9214 6.5633 23.607ZM10.95 35.257C9.84164 34.6237 9.35997 32.2003 9.73497 29.087C9.82497 28.3203 9.97164 27.512 10.1516 26.6887C11.7483 27.0803 13.4933 27.382 15.3283 27.5787C16.3669 29.0115 17.5 30.3734 18.72 31.6553C16.0616 34.1253 13.5666 35.4787 11.87 35.4787C11.5499 35.4822 11.2339 35.4066 10.95 35.2587V35.257ZM30.29 29.0453C30.6733 32.1603 30.2 34.582 29.0983 35.2253C28.855 35.372 28.5366 35.437 28.1616 35.437C26.4733 35.437 23.97 34.092 21.3116 31.637C22.4533 30.4403 23.595 29.0787 24.68 27.5703C26.4269 27.3914 28.1594 27.0918 29.865 26.6737C30.0533 27.497 30.1983 28.287 30.29 29.0453ZM33.4283 23.607C32.7283 23.9087 31.9616 24.1787 31.17 24.4303C30.6716 22.7359 30.0591 21.0771 29.3366 19.4653C30.0866 17.7703 30.6883 16.1153 31.145 14.5253C31.9533 14.777 32.7183 15.0553 33.4366 15.357C36.3233 16.587 38.19 18.202 38.19 19.482C38.1816 20.762 36.315 22.3853 33.4283 23.607Z" fill="#10183A"/>
<path d="M19.9916 23.2082C20.98 23.2082 21.9279 22.8156 22.6268 22.1167C23.3257 21.4178 23.7183 20.4699 23.7183 19.4815C23.7183 18.4932 23.3257 17.5453 22.6268 16.8464C21.9279 16.1475 20.98 15.7549 19.9916 15.7549C19.0032 15.7549 18.0554 16.1475 17.3565 16.8464C16.6576 17.5453 16.265 18.4932 16.265 19.4815C16.265 20.4699 16.6576 21.4178 17.3565 22.1167C18.0554 22.8156 19.0032 23.2082 19.9916 23.2082Z" fill="#10183A"/>
</g>
</svg>
